solid vcg
  facet normal 0.000000e+000 1.000000e+000 0.000000e+000
    outer loop
      vertex  1.244720e+002 4.900000e+001 2.333355e+001
      vertex  1.166194e+002 4.900000e+001 1.691342e+001
      vertex  1.155355e+002 4.900000e+001 1.853553e+001
    endloop
  endfacet
  facet normal 0.000000e+000 1.000000e+000 0.000000e+000
    outer loop
      vertex  1.166194e+002 1.310000e+001 1.691342e+001
      vertex  1.170000e+002 1.310000e+001 1.500000e+001
      vertex  1.166194e+002 1.310000e+001 1.308658e+001
    endloop
  endfacet
  facet normal -6.343932e-001 0.000000e+000 7.730106e-001
    outer loop
      vertex  1.036664e+002 1.421085e-014 2.747204e+001
      vertex  1.013934e+002 4.900000e+001 2.560660e+001
      vertex  1.013934e+002 2.131628e-014 2.560660e+001
    endloop
  endfacet
  facet normal -8.314700e-001 0.000000e+000 5.555697e-001
    outer loop
      vertex  1.166194e+002 4.900000e+001 1.308658e+001
      vertex  1.155355e+002 1.310000e+001 1.146447e+001
      vertex  1.166194e+002 1.310000e+001 1.308658e+001
    endloop
  endfacet
  facet normal -7.730108e-001 0.000000e+000 6.343928e-001
    outer loop
      vertex  9.952795e+001 4.900000e+001 2.333355e+001
      vertex  9.952795e+001 2.131628e-014 2.333355e+001
      vertex  1.013934e+002 2.131628e-014 2.560660e+001
    endloop
  endfacet
  facet normal -5.555688e-001 0.000000e+000 8.314707e-001
    outer loop
      vertex  1.155355e+002 4.900000e+001 1.146447e+001
      vertex  1.139134e+002 1.310000e+001 1.038060e+001
      vertex  1.155355e+002 1.310000e+001 1.146447e+001
    endloop
  endfacet
  facet normal -4.713959e-001 0.000000e+000 8.819218e-001
    outer loop
      vertex  1.036664e+002 4.900000e+001 2.747204e+001
      vertex  1.062598e+002 1.421085e-014 2.885819e+001
      vertex  1.062598e+002 4.900000e+001 2.885819e+001
    endloop
  endfacet
  facet normal 2.902847e-001 0.000000e+000 9.569404e-001
    outer loop
      vertex  1.149264e+002 4.900000e+001 2.971178e+001
      vertex  1.177402e+002 2.842171e-014 2.885819e+001
      vertex  1.177402e+002 4.900000e+001 2.885819e+001
    endloop
  endfacet
  facet normal 1.950904e-001 0.000000e+000 9.807853e-001
    outer loop
      vertex  1.120000e+002 4.900000e+001 1.000000e+001
      vertex  1.100866e+002 1.310000e+001 1.038060e+001
      vertex  1.120000e+002 1.310000e+001 1.000000e+001
    endloop
  endfacet
  facet normal 0.000000e+000 1.000000e+000 0.000000e+000
    outer loop
      vertex  1.090736e+002 4.900000e+001 2.971178e+001
      vertex  1.120000e+002 4.900000e+001 2.000000e+001
      vertex  1.100866e+002 4.900000e+001 1.961940e+001
    endloop
  endfacet
  facet normal 5.555688e-001 0.000000e+000 8.314707e-001
    outer loop
      vertex  1.100866e+002 4.900000e+001 1.038060e+001
      vertex  1.084645e+002 1.310000e+001 1.146447e+001
      vertex  1.100866e+002 1.310000e+001 1.038060e+001
    endloop
  endfacet
  facet normal 8.314700e-001 0.000000e+000 5.555697e-001
    outer loop
      vertex  1.084645e+002 4.900000e+001 1.146447e+001
      vertex  1.073806e+002 1.310000e+001 1.308658e+001
      vertex  1.084645e+002 1.310000e+001 1.146447e+001
    endloop
  endfacet
  facet normal 6.343932e-001 0.000000e+000 7.730106e-001
    outer loop
      vertex  1.203336e+002 4.900000e+001 2.747204e+001
      vertex  1.226066e+002 2.842171e-014 2.560660e+001
      vertex  1.226066e+002 4.900000e+001 2.560660e+001
    endloop
  endfacet
  facet normal 0.000000e+000 0.000000e+000 1.000000e+000
    outer loop
      vertex  9.934155e+001 8.000000e+000 2.298481e+001
      vertex  2.887768e+001 8.000000e+000 2.298481e+001
      vertex  9.934155e+001 1.421085e-014 2.298481e+001
    endloop
  endfacet
  facet normal 8.314698e-001 0.000000e+000 -5.555699e-001
    outer loop
      vertex  1.084645e+002 4.900000e+001 1.853553e+001
      vertex  1.084645e+002 1.310000e+001 1.853553e+001
      vertex  1.073806e+002 4.900000e+001 1.691342e+001
    endloop
  endfacet
  facet normal 8.314698e-001 0.000000e+000 -5.555699e-001
    outer loop
      vertex  1.073806e+002 4.900000e+001 1.691342e+001
      vertex  1.084645e+002 1.310000e+001 1.853553e+001
      vertex  1.073806e+002 1.310000e+001 1.691342e+001
    endloop
  endfacet
  facet normal -1.568192e-001 9.876273e-001 0.000000e+000
    outer loop
      vertex  1.150000e+001 1.523438e+001 7.031599e+000
      vertex  9.187500e+000 1.486719e+001 7.031599e+000
      vertex  1.150000e+001 1.523438e+001 2.298481e+001
    endloop
  endfacet
  facet normal 5.555688e-001 0.000000e+000 -8.314707e-001
    outer loop
      vertex  1.084645e+002 4.900000e+001 1.853553e+001
      vertex  1.100866e+002 1.310000e+001 1.961940e+001
      vertex  1.084645e+002 1.310000e+001 1.853553e+001
    endloop
  endfacet
  facet normal 1.950904e-001 0.000000e+000 -9.807853e-001
    outer loop
      vertex  1.100866e+002 4.900000e+001 1.961940e+001
      vertex  1.120000e+002 1.310000e+001 2.000000e+001
      vertex  1.100866e+002 1.310000e+001 1.961940e+001
    endloop
  endfacet
  facet normal -9.801736e-002 0.000000e+000 9.951847e-001
    outer loop
      vertex  1.120000e+002 2.131628e-014 3.000000e+001
      vertex  1.120000e+002 4.900000e+001 3.000000e+001
      vertex  1.090736e+002 0.000000e+000 2.971178e+001
    endloop
  endfacet
  facet normal -1.950904e-001 -0.000000e+000 -9.807853e-001
    outer loop
      vertex  1.120000e+002 4.900000e+001 2.000000e+001
      vertex  1.139134e+002 1.310000e+001 1.961940e+001
      vertex  1.120000e+002 1.310000e+001 2.000000e+001
    endloop
  endfacet
  facet normal -5.555688e-001 -0.000000e+000 -8.314707e-001
    outer loop
      vertex  1.155355e+002 4.900000e+001 1.853553e+001
      vertex  1.155355e+002 1.310000e+001 1.853553e+001
      vertex  1.139134e+002 4.900000e+001 1.961940e+001
    endloop
  endfacet
  facet normal -5.555688e-001 -0.000000e+000 -8.314707e-001
    outer loop
      vertex  1.139134e+002 4.900000e+001 1.961940e+001
      vertex  1.155355e+002 1.310000e+001 1.853553e+001
      vertex  1.139134e+002 1.310000e+001 1.961940e+001
    endloop
  endfacet
  facet normal 0.000000e+000 1.000000e+000 0.000000e+000
    outer loop
      vertex  9.728822e+001 4.900000e+001 1.207365e+001
      vertex  1.070000e+002 4.900000e+001 1.500000e+001
      vertex  1.073806e+002 4.900000e+001 1.308658e+001
    endloop
  endfacet
  facet normal -8.314698e-001 -0.000000e+000 -5.555699e-001
    outer loop
      vertex  1.155355e+002 4.900000e+001 1.853553e+001
      vertex  1.166194e+002 1.310000e+001 1.691342e+001
      vertex  1.155355e+002 1.310000e+001 1.853553e+001
    endloop
  endfacet
  facet normal -9.807855e-001 -0.000000e+000 -1.950891e-001
    outer loop
      vertex  1.170000e+002 4.900000e+001 1.500000e+001
      vertex  1.170000e+002 1.310000e+001 1.500000e+001
      vertex  1.166194e+002 4.900000e+001 1.691342e+001
    endloop
  endfacet
  facet normal -9.807855e-001 -0.000000e+000 -1.950891e-001
    outer loop
      vertex  1.166194e+002 4.900000e+001 1.691342e+001
      vertex  1.170000e+002 1.310000e+001 1.500000e+001
      vertex  1.166194e+002 1.310000e+001 1.691342e+001
    endloop
  endfacet
  facet normal -8.314700e-001 0.000000e+000 5.555697e-001
    outer loop
      vertex  1.155355e+002 1.310000e+001 1.146447e+001
      vertex  1.166194e+002 4.900000e+001 1.308658e+001
      vertex  1.155355e+002 4.900000e+001 1.146447e+001
    endloop
  endfacet
  facet normal -2.902847e-001 0.000000e+000 -9.569404e-001
    outer loop
      vertex  1.090736e+002 4.900000e+001 2.882208e-001
      vertex  1.062598e+002 2.842171e-014 1.141807e+000
      vertex  1.062598e+002 4.900000e+001 1.141807e+000
    endloop
  endfacet
  facet normal -0.000000e+000 0.000000e+000 1.000000e+000
    outer loop
      vertex  3.945313e-001 9.179688e+000 2.298481e+001
      vertex  7.105427e-015 8.571721e+000 2.298481e+001
      vertex  1.242188e+000 1.020313e+001 2.298481e+001
    endloop
  endfacet
  facet normal 5.555688e-001 -0.000000e+000 8.314707e-001
    outer loop
      vertex  1.084645e+002 1.310000e+001 1.146447e+001
      vertex  1.100866e+002 4.900000e+001 1.038060e+001
      vertex  1.084645e+002 4.900000e+001 1.146447e+001
    endloop
  endfacet
  facet normal 8.314700e-001 -0.000000e+000 5.555697e-001
    outer loop
      vertex  1.073806e+002 1.310000e+001 1.308658e+001
      vertex  1.084645e+002 4.900000e+001 1.146447e+001
      vertex  1.073806e+002 4.900000e+001 1.308658e+001
    endloop
  endfacet
  facet normal 5.163343e-001 8.563851e-001 -1.827427e-003
    outer loop
      vertex  2.637500e+001 9.406250e+000 1.500000e+001
      vertex  2.571625e+001 9.820462e+000 2.298481e+001
      vertex  2.757380e+001 8.700506e+000 2.298481e+001
    endloop
  endfacet
  facet normal -9.801719e-002 0.000000e+000 -9.951848e-001
    outer loop
      vertex  1.120000e+002 4.900000e+001 3.552714e-015
      vertex  1.090736e+002 2.842171e-014 2.882208e-001
      vertex  1.090736e+002 4.900000e+001 2.882208e-001
    endloop
  endfacet
  facet normal 1.950904e-001 0.000000e+000 -9.807853e-001
    outer loop
      vertex  1.120000e+002 1.310000e+001 2.000000e+001
      vertex  1.100866e+002 4.900000e+001 1.961940e+001
      vertex  1.120000e+002 4.900000e+001 2.000000e+001
    endloop
  endfacet
  facet normal -1.950904e-001 0.000000e+000 -9.807853e-001
    outer loop
      vertex  1.139134e+002 1.310000e+001 1.961940e+001
      vertex  1.120000e+002 4.900000e+001 2.000000e+001
      vertex  1.139134e+002 4.900000e+001 1.961940e+001
    endloop
  endfacet
  facet normal -8.314698e-001 0.000000e+000 -5.555699e-001
    outer loop
      vertex  1.166194e+002 1.310000e+001 1.691342e+001
      vertex  1.155355e+002 4.900000e+001 1.853553e+001
      vertex  1.166194e+002 4.900000e+001 1.691342e+001
    endloop
  endfacet
  facet normal -6.657566e-001 7.461690e-001 0.000000e+000
    outer loop
      vertex  1.242188e+000 1.020313e+001 7.031599e+000
      vertex  1.242188e+000 1.020313e+001 2.298481e+001
      vertex  3.253906e+000 1.199805e+001 2.298481e+001
    endloop
  endfacet
  facet normal 0.000000e+000 1.000000e+000 0.000000e+000
    outer loop
      vertex  6.349819e+001 8.000000e+000 1.000000e+001
      vertex  9.933278e+001 8.000000e+000 7.031599e+000
      vertex  2.887201e+001 8.000000e+000 7.031599e+000
    endloop
  endfacet
  facet normal -5.555688e-001 0.000000e+000 8.314707e-001
    outer loop
      vertex  1.139134e+002 4.900000e+001 1.038060e+001
      vertex  1.139134e+002 1.310000e+001 1.038060e+001
      vertex  1.155355e+002 4.900000e+001 1.146447e+001
    endloop
  endfacet
  facet normal -0.000000e+000 0.000000e+000 1.000000e+000
    outer loop
      vertex  1.242188e+000 1.020313e+001 2.298481e+001
      vertex  7.105427e-015 8.571721e+000 2.298481e+001
      vertex  3.253906e+000 1.199805e+001 2.298481e+001
    endloop
  endfacet
  facet normal 1.950904e-001 0.000000e+000 9.807853e-001
    outer loop
      vertex  1.100866e+002 4.900000e+001 1.038060e+001
      vertex  1.100866e+002 1.310000e+001 1.038060e+001
      vertex  1.120000e+002 4.900000e+001 1.000000e+001
    endloop
  endfacet
  facet normal 4.713959e-001 0.000000e+000 8.819218e-001
    outer loop
      vertex  1.203336e+002 2.842171e-014 2.747204e+001
      vertex  1.177402e+002 4.900000e+001 2.885819e+001
      vertex  1.177402e+002 2.842171e-014 2.885819e+001
    endloop
  endfacet
  facet normal -4.713959e-001 0.000000e+000 8.819218e-001
    outer loop
      vertex  1.062598e+002 1.421085e-014 2.885819e+001
      vertex  1.036664e+002 4.900000e+001 2.747204e+001
      vertex  1.036664e+002 1.421085e-014 2.747204e+001
    endloop
  endfacet
  facet normal 0.000000e+000 1.000000e+000 0.000000e+000
    outer loop
      vertex  1.036664e+002 4.900000e+001 2.527956e+000
      vertex  1.084645e+002 4.900000e+001 1.146447e+001
      vertex  1.100866e+002 4.900000e+001 1.038060e+001
    endloop
  endfacet
  facet normal 5.555688e-001 0.000000e+000 -8.314707e-001
    outer loop
      vertex  1.100866e+002 4.900000e+001 1.961940e+001
      vertex  1.100866e+002 1.310000e+001 1.961940e+001
      vertex  1.084645e+002 4.900000e+001 1.853553e+001
    endloop
  endfacet
  facet normal 7.730108e-001 0.000000e+000 -6.343928e-001
    outer loop
      vertex  1.244720e+002 4.900000e+001 6.666447e+000
      vertex  1.226066e+002 1.421085e-014 4.393398e+000
      vertex  1.226066e+002 4.900000e+001 4.393398e+000
    endloop
  endfacet
  facet normal -2.164210e-001 9.763002e-001 4.239681e-007
    outer loop
      vertex  9.791725e+001 1.562983e+001 1.000000e+001
      vertex  6.349819e+001 8.000000e+000 1.000000e+001
      vertex  9.728822e+001 1.549039e+001 1.207365e+001
    endloop
  endfacet
  facet normal 0.000000e+000 1.000000e+000 0.000000e+000
    outer loop
      vertex  1.244720e+002 4.900000e+001 6.666447e+000
      vertex  1.155355e+002 4.900000e+001 1.146447e+001
      vertex  1.166194e+002 4.900000e+001 1.308658e+001
    endloop
  endfacet
  facet normal 0.000000e+000 1.000000e+000 0.000000e+000
    outer loop
      vertex  1.270000e+002 4.900000e+001 1.500000e+001
      vertex  1.170000e+002 4.900000e+001 1.500000e+001
      vertex  1.267118e+002 4.900000e+001 1.792636e+001
    endloop
  endfacet
  facet normal 0.000000e+000 1.000000e+000 0.000000e+000
    outer loop
      vertex  1.258582e+002 4.900000e+001 2.074025e+001
      vertex  1.166194e+002 4.900000e+001 1.691342e+001
      vertex  1.244720e+002 4.900000e+001 2.333355e+001
    endloop
  endfacet
  facet normal 0.000000e+000 1.000000e+000 0.000000e+000
    outer loop
      vertex  1.226066e+002 4.900000e+001 2.560660e+001
      vertex  1.244720e+002 4.900000e+001 2.333355e+001
      vertex  1.155355e+002 4.900000e+001 1.853553e+001
    endloop
  endfacet
  facet normal 0.000000e+000 1.000000e+000 -0.000000e+000
    outer loop
      vertex  9.814181e+001 8.000000e+000 2.074025e+001
      vertex  6.349819e+001 8.000000e+000 2.000000e+001
      vertex  9.934155e+001 8.000000e+000 2.298481e+001
    endloop
  endfacet
  facet normal -2.902847e-001 0.000000e+000 9.569404e-001
    outer loop
      vertex  1.090736e+002 0.000000e+000 2.971178e+001
      vertex  1.062598e+002 4.900000e+001 2.885819e+001
      vertex  1.062598e+002 1.421085e-014 2.885819e+001
    endloop
  endfacet
  facet normal -1.214041e-015 -1.000000e+000 1.232636e-014
    outer loop
      vertex  1.149264e+002 2.131628e-014 2.882208e-001
      vertex  1.090736e+002 2.842171e-014 2.882208e-001
      vertex  1.120000e+002 2.131628e-014 0.000000e+000
    endloop
  endfacet
  facet normal 0.000000e+000 1.000000e+000 0.000000e+000
    outer loop
      vertex  1.226066e+002 4.900000e+001 2.560660e+001
      vertex  1.155355e+002 4.900000e+001 1.853553e+001
      vertex  1.203336e+002 4.900000e+001 2.747204e+001
    endloop
  endfacet
  facet normal -6.343933e-001 -0.000000e+000 -7.730105e-001
    outer loop
      vertex  1.036664e+002 4.900000e+001 2.527956e+000
      vertex  1.036664e+002 2.131628e-014 2.527956e+000
      vertex  1.013934e+002 2.842171e-014 4.393398e+000
    endloop
  endfacet
  facet normal 9.801736e-002 0.000000e+000 9.951847e-001
    outer loop
      vertex  1.120000e+002 4.900000e+001 3.000000e+001
      vertex  1.149264e+002 2.131628e-014 2.971178e+001
      vertex  1.149264e+002 4.900000e+001 2.971178e+001
    endloop
  endfacet
  facet normal 0.000000e+000 1.000000e+000 0.000000e+000
    outer loop
      vertex  1.177402e+002 4.900000e+001 1.141807e+000
      vertex  1.149264e+002 4.900000e+001 2.882208e-001
      vertex  1.139134e+002 4.900000e+001 1.038060e+001
    endloop
  endfacet
  facet normal 4.806684e-001 8.768963e-001 -3.301499e-003
    outer loop
      vertex  2.079340e+001 1.267893e+001 2.298481e+001
      vertex  1.872384e+001 1.375329e+001 7.031599e+000
      vertex  1.940185e+001 1.344170e+001 2.298481e+001
    endloop
  endfacet
  facet normal 0.000000e+000 -1.000000e+000 -0.000000e+000
    outer loop
      vertex  1.120000e+002 2.131628e-014 3.000000e+001
      vertex  9.952795e+001 2.131628e-014 2.333355e+001
      vertex  1.149264e+002 2.131628e-014 2.971178e+001
    endloop
  endfacet
  facet normal 1.493018e-016 -1.000000e+000 -3.604466e-016
    outer loop
      vertex  9.952795e+001 2.131628e-014 2.333355e+001
      vertex  1.270000e+002 2.842171e-014 1.500000e+001
      vertex  1.149264e+002 2.131628e-014 2.971178e+001
    endloop
  endfacet
  facet normal 0.000000e+000 0.000000e+000 -1.000000e+000
    outer loop
      vertex  9.933278e+001 7.105427e-015 7.031599e+000
      vertex  0.000000e+000 2.131628e-014 7.031599e+000
      vertex  2.887201e+001 8.000000e+000 7.031599e+000
    endloop
  endfacet
  facet normal 0.000000e+000 1.000000e+000 0.000000e+000
    outer loop
      vertex  1.177402e+002 4.900000e+001 2.885819e+001
      vertex  1.139134e+002 4.900000e+001 1.961940e+001
      vertex  1.149264e+002 4.900000e+001 2.971178e+001
    endloop
  endfacet
  facet normal 0.000000e+000 1.000000e+000 0.000000e+000
    outer loop
      vertex  1.120000e+002 4.900000e+001 3.000000e+001
      vertex  1.149264e+002 4.900000e+001 2.971178e+001
      vertex  1.120000e+002 4.900000e+001 2.000000e+001
    endloop
  endfacet
  facet normal 0.000000e+000 0.000000e+000 -1.000000e+000
    outer loop
      vertex  9.791725e+001 8.000000e+000 1.000000e+001
      vertex  6.349819e+001 8.000000e+000 1.000000e+001
      vertex  9.791725e+001 1.562983e+001 1.000000e+001
    endloop
  endfacet
  facet normal 5.323028e-001 8.465541e-001 -0.000000e+000
    outer loop
      vertex  2.431250e+001 1.070313e+001 7.031599e+000
      vertex  2.431250e+001 1.070313e+001 2.298481e+001
      vertex  2.571625e+001 9.820462e+000 2.298481e+001
    endloop
  endfacet
  facet normal 9.569405e-001 0.000000e+000 2.902841e-001
    outer loop
      vertex  1.258582e+002 4.900000e+001 2.074025e+001
      vertex  1.267118e+002 6.394885e-014 1.792636e+001
      vertex  1.267118e+002 4.900000e+001 1.792636e+001
    endloop
  endfacet
  facet normal -6.343932e-001 0.000000e+000 7.730106e-001
    outer loop
      vertex  1.013934e+002 4.900000e+001 2.560660e+001
      vertex  1.036664e+002 1.421085e-014 2.747204e+001
      vertex  1.036664e+002 4.900000e+001 2.747204e+001
    endloop
  endfacet
  facet normal 0.000000e+000 1.000000e+000 0.000000e+000
    outer loop
      vertex  9.933278e+001 8.000000e+000 7.031599e+000
      vertex  6.349819e+001 8.000000e+000 1.000000e+001
      vertex  9.814181e+001 8.000000e+000 9.259748e+000
    endloop
  endfacet
  facet normal -0.000000e+000 1.000000e+000 0.000000e+000
    outer loop
      vertex  1.013934e+002 4.900000e+001 4.393398e+000
      vertex  1.084645e+002 4.900000e+001 1.146447e+001
      vertex  1.036664e+002 4.900000e+001 2.527956e+000
    endloop
  endfacet
  facet normal 0.000000e+000 1.000000e+000 -0.000000e+000
    outer loop
      vertex  9.814181e+001 4.900000e+001 9.259748e+000
      vertex  9.728822e+001 4.900000e+001 1.207365e+001
      vertex  1.073806e+002 4.900000e+001 1.308658e+001
    endloop
  endfacet
  facet normal 1.817065e-001 9.833528e-001 0.000000e+000
    outer loop
      vertex  1.587500e+001 1.479688e+001 2.298481e+001
      vertex  1.371875e+001 1.519531e+001 7.031599e+000
      vertex  1.371875e+001 1.519531e+001 2.298481e+001
    endloop
  endfacet
  facet normal 0.000000e+000 -1.000000e+000 -0.000000e+000
    outer loop
      vertex  1.013934e+002 2.131628e-014 2.560660e+001
      vertex  9.952795e+001 2.131628e-014 2.333355e+001
      vertex  1.120000e+002 2.131628e-014 3.000000e+001
    endloop
  endfacet
  facet normal -7.730108e-001 0.000000e+000 -6.343928e-001
    outer loop
      vertex  1.013934e+002 4.900000e+001 4.393398e+000
      vertex  9.952795e+001 0.000000e+000 6.666447e+000
      vertex  9.952795e+001 4.900000e+001 6.666447e+000
    endloop
  endfacet
  facet normal 0.000000e+000 1.000000e+000 0.000000e+000
    outer loop
      vertex  1.120000e+002 4.900000e+001 3.000000e+001
      vertex  1.120000e+002 4.900000e+001 2.000000e+001
      vertex  1.090736e+002 4.900000e+001 2.971178e+001
    endloop
  endfacet
  facet normal -0.000000e+000 1.000000e+000 0.000000e+000
    outer loop
      vertex  1.062598e+002 4.900000e+001 2.885819e+001
      vertex  1.090736e+002 4.900000e+001 2.971178e+001
      vertex  1.100866e+002 4.900000e+001 1.961940e+001
    endloop
  endfacet
  facet normal 7.730108e-001 0.000000e+000 6.343928e-001
    outer loop
      vertex  1.226066e+002 4.900000e+001 2.560660e+001
      vertex  1.244720e+002 5.684342e-014 2.333355e+001
      vertex  1.244720e+002 4.900000e+001 2.333355e+001
    endloop
  endfacet
  facet normal 0.000000e+000 1.000000e+000 0.000000e+000
    outer loop
      vertex  1.258582e+002 4.900000e+001 9.259748e+000
      vertex  1.244720e+002 4.900000e+001 6.666447e+000
      vertex  1.166194e+002 4.900000e+001 1.308658e+001
    endloop
  endfacet
  facet normal 0.000000e+000 0.000000e+000 1.000000e+000
    outer loop
      vertex  2.887768e+001 8.000000e+000 2.298481e+001
      vertex  0.000000e+000 2.131628e-014 2.298481e+001
      vertex  9.934155e+001 1.421085e-014 2.298481e+001
    endloop
  endfacet
  facet normal 0.000000e+000 1.000000e+000 -0.000000e+000
    outer loop
      vertex  1.226066e+002 4.900000e+001 4.393398e+000
      vertex  1.155355e+002 4.900000e+001 1.146447e+001
      vertex  1.244720e+002 4.900000e+001 6.666447e+000
    endloop
  endfacet
  facet normal -0.000000e+000 1.000000e+000 0.000000e+000
    outer loop
      vertex  9.814181e+001 4.900000e+001 9.259748e+000
      vertex  1.073806e+002 4.900000e+001 1.308658e+001
      vertex  9.952795e+001 4.900000e+001 6.666447e+000
    endloop
  endfacet
  facet normal 0.000000e+000 0.000000e+000 1.000000e+000
    outer loop
      vertex  1.587500e+001 1.479688e+001 2.298481e+001
      vertex  1.371875e+001 1.519531e+001 2.298481e+001
      vertex  2.223438e+001 1.195313e+001 2.298481e+001
    endloop
  endfacet
  facet normal -7.730108e-001 -0.000000e+000 -6.343928e-001
    outer loop
      vertex  1.013934e+002 4.900000e+001 4.393398e+000
      vertex  1.013934e+002 2.842171e-014 4.393398e+000
      vertex  9.952795e+001 0.000000e+000 6.666447e+000
    endloop
  endfacet
  facet normal -0.000000e+000 1.000000e+000 0.000000e+000
    outer loop
      vertex  6.349819e+001 8.000000e+000 1.000000e+001
      vertex  9.791725e+001 8.000000e+000 1.000000e+001
      vertex  9.814181e+001 8.000000e+000 9.259748e+000
    endloop
  endfacet
  facet normal -1.167748e-014 -1.000000e+000 2.184709e-014
    outer loop
      vertex  1.062598e+002 1.421085e-014 2.885819e+001
      vertex  1.036664e+002 1.421085e-014 2.747204e+001
      vertex  1.090736e+002 0.000000e+000 2.971178e+001
    endloop
  endfacet
  facet normal 9.951847e-001 0.000000e+000 -9.801798e-002
    outer loop
      vertex  1.267118e+002 3.552714e-014 1.207365e+001
      vertex  1.270000e+002 4.900000e+001 1.500000e+001
      vertex  1.270000e+002 2.842171e-014 1.500000e+001
    endloop
  endfacet
  facet normal -2.902847e-001 0.000000e+000 -9.569404e-001
    outer loop
      vertex  1.062598e+002 2.842171e-014 1.141807e+000
      vertex  1.090736e+002 4.900000e+001 2.882208e-001
      vertex  1.090736e+002 2.842171e-014 2.882208e-001
    endloop
  endfacet
  facet normal -0.000000e+000 1.000000e+000 0.000000e+000
    outer loop
      vertex  1.013934e+002 4.900000e+001 2.560660e+001
      vertex  1.036664e+002 4.900000e+001 2.747204e+001
      vertex  1.084645e+002 4.900000e+001 1.853553e+001
    endloop
  endfacet
  facet normal 0.000000e+000 1.000000e+000 -0.000000e+000
    outer loop
      vertex  1.073806e+002 4.900000e+001 1.691342e+001
      vertex  9.814181e+001 4.900000e+001 2.074025e+001
      vertex  1.084645e+002 4.900000e+001 1.853553e+001
    endloop
  endfacet
  facet normal 9.801719e-002 0.000000e+000 -9.951848e-001
    outer loop
      vertex  1.149264e+002 4.900000e+001 2.882208e-001
      vertex  1.149264e+002 2.131628e-014 2.882208e-001
      vertex  1.120000e+002 2.131628e-014 0.000000e+000
    endloop
  endfacet
  facet normal 4.713960e-001 0.000000e+000 -8.819216e-001
    outer loop
      vertex  1.177402e+002 1.421085e-014 1.141807e+000
      vertex  1.203336e+002 4.900000e+001 2.527956e+000
      vertex  1.203336e+002 7.105427e-015 2.527956e+000
    endloop
  endfacet
  facet normal -2.902847e-001 0.000000e+000 9.569404e-001
    outer loop
      vertex  1.062598e+002 4.900000e+001 2.885819e+001
      vertex  1.090736e+002 0.000000e+000 2.971178e+001
      vertex  1.090736e+002 4.900000e+001 2.971178e+001
    endloop
  endfacet
  facet normal 4.175723e-001 9.086373e-001 3.395904e-003
    outer loop
      vertex  1.944236e+001 1.335943e+001 7.031599e+000
      vertex  2.151655e+001 1.234660e+001 2.298481e+001
      vertex  2.084352e+001 1.271552e+001 7.031599e+000
    endloop
  endfacet
  facet normal -8.819212e-001 -6.444656e-008 -4.713970e-001
    outer loop
      vertex  9.814181e+001 8.000000e+000 9.259748e+000
      vertex  9.952795e+001 4.900000e+001 6.666447e+000
      vertex  9.933278e+001 8.000000e+000 7.031599e+000
    endloop
  endfacet
  facet normal -9.801736e-002 0.000000e+000 9.951847e-001
    outer loop
      vertex  1.120000e+002 4.900000e+001 3.000000e+001
      vertex  1.090736e+002 4.900000e+001 2.971178e+001
      vertex  1.090736e+002 0.000000e+000 2.971178e+001
    endloop
  endfacet
  facet normal 7.730108e-001 0.000000e+000 -6.343928e-001
    outer loop
      vertex  1.226066e+002 1.421085e-014 4.393398e+000
      vertex  1.244720e+002 4.900000e+001 6.666447e+000
      vertex  1.244720e+002 1.421085e-014 6.666447e+000
    endloop
  endfacet
  facet normal 9.569406e-001 0.000000e+000 -2.902840e-001
    outer loop
      vertex  1.258582e+002 1.421085e-014 9.259748e+000
      vertex  1.267118e+002 4.900000e+001 1.207365e+001
      vertex  1.267118e+002 3.552714e-014 1.207365e+001
    endloop
  endfacet
  facet normal 4.797706e-001 8.773825e-001 -4.495921e-003
    outer loop
      vertex  2.889854e+001 8.000000e+000 9.863013e+000
      vertex  2.887201e+001 8.000000e+000 7.031599e+000
      vertex  2.795061e+001 8.503841e+000 7.031599e+000
    endloop
  endfacet
  facet normal 0.000000e+000 1.000000e+000 0.000000e+000
    outer loop
      vertex  1.013934e+002 4.900000e+001 2.560660e+001
      vertex  1.084645e+002 4.900000e+001 1.853553e+001
      vertex  9.952795e+001 4.900000e+001 2.333355e+001
    endloop
  endfacet
  facet normal -4.713960e-001 0.000000e+000 -8.819216e-001
    outer loop
      vertex  1.062598e+002 4.900000e+001 1.141807e+000
      vertex  1.036664e+002 2.131628e-014 2.527956e+000
      vertex  1.036664e+002 4.900000e+001 2.527956e+000
    endloop
  endfacet
  facet normal 9.951847e-001 0.000000e+000 -9.801798e-002
    outer loop
      vertex  1.270000e+002 4.900000e+001 1.500000e+001
      vertex  1.267118e+002 3.552714e-014 1.207365e+001
      vertex  1.267118e+002 4.900000e+001 1.207365e+001
    endloop
  endfacet
  facet normal 0.000000e+000 0.000000e+000 1.000000e+000
    outer loop
      vertex  1.371875e+001 1.519531e+001 2.298481e+001
      vertex  2.431250e+001 1.070313e+001 2.298481e+001
      vertex  2.223438e+001 1.195313e+001 2.298481e+001
    endloop
  endfacet
  facet normal -0.000000e+000 1.000000e+000 0.000000e+000
    outer loop
      vertex  9.814181e+001 4.900000e+001 2.074025e+001
      vertex  9.952795e+001 4.900000e+001 2.333355e+001
      vertex  1.084645e+002 4.900000e+001 1.853553e+001
    endloop
  endfacet
  facet normal 9.801736e-002 0.000000e+000 9.951847e-001
    outer loop
      vertex  1.149264e+002 2.131628e-014 2.971178e+001
      vertex  1.120000e+002 4.900000e+001 3.000000e+001
      vertex  1.120000e+002 2.131628e-014 3.000000e+001
    endloop
  endfacet
  facet normal 8.819216e-001 0.000000e+000 4.713962e-001
    outer loop
      vertex  1.244720e+002 4.900000e+001 2.333355e+001
      vertex  1.258582e+002 6.394885e-014 2.074025e+001
      vertex  1.258582e+002 4.900000e+001 2.074025e+001
    endloop
  endfacet
  facet normal 9.569405e-001 0.000000e+000 2.902841e-001
    outer loop
      vertex  1.267118e+002 6.394885e-014 1.792636e+001
      vertex  1.258582e+002 4.900000e+001 2.074025e+001
      vertex  1.258582e+002 6.394885e-014 2.074025e+001
    endloop
  endfacet
  facet normal -5.940288e-001 8.044438e-001 0.000000e+000
    outer loop
      vertex  3.253906e+000 1.199805e+001 7.031599e+000
      vertex  4.351563e+000 1.280859e+001 2.298481e+001
      vertex  4.351563e+000 1.280859e+001 7.031599e+000
    endloop
  endfacet
  facet normal -2.164210e-001 9.763001e-001 -4.174457e-007
    outer loop
      vertex  6.349819e+001 8.000000e+000 2.000000e+001
      vertex  9.791725e+001 1.562983e+001 2.000000e+001
      vertex  9.728822e+001 1.549039e+001 1.792636e+001
    endloop
  endfacet
  facet normal 1.000037e-015 -1.000000e+000 5.027526e-015
    outer loop
      vertex  1.036664e+002 2.131628e-014 2.527956e+000
      vertex  1.149264e+002 2.131628e-014 2.882208e-001
      vertex  1.013934e+002 2.842171e-014 4.393398e+000
    endloop
  endfacet
  facet normal 0.000000e+000 1.000000e+000 -0.000000e+000
    outer loop
      vertex  1.120000e+002 4.900000e+001 3.552714e-015
      vertex  1.090736e+002 4.900000e+001 2.882208e-001
      vertex  1.120000e+002 4.900000e+001 1.000000e+001
    endloop
  endfacet
  facet normal -0.000000e+000 -0.000000e+000 -1.000000e+000
    outer loop
      vertex  2.084352e+001 1.271552e+001 7.031599e+000
      vertex  2.223438e+001 1.195313e+001 7.031599e+000
      vertex  1.944236e+001 1.335943e+001 7.031599e+000
    endloop
  endfacet
  facet normal 0.000000e+000 0.000000e+000 1.000000e+000
    outer loop
      vertex  6.349819e+001 8.000000e+000 2.000000e+001
      vertex  9.791725e+001 8.000000e+000 2.000000e+001
      vertex  9.791725e+001 1.562983e+001 2.000000e+001
    endloop
  endfacet
  facet normal -4.713960e-001 -0.000000e+000 -8.819216e-001
    outer loop
      vertex  1.062598e+002 4.900000e+001 1.141807e+000
      vertex  1.062598e+002 2.842171e-014 1.141807e+000
      vertex  1.036664e+002 2.131628e-014 2.527956e+000
    endloop
  endfacet
  facet normal 9.550354e-017 -1.000000e+000 4.453392e-016
    outer loop
      vertex  1.203336e+002 7.105427e-015 2.527956e+000
      vertex  9.934155e+001 1.421085e-014 2.298481e+001
      vertex  9.933278e+001 7.105427e-015 7.031599e+000
    endloop
  endfacet
  facet normal 5.926374e-014 -1.000000e+000 1.797742e-014
    outer loop
      vertex  1.258582e+002 6.394885e-014 2.074025e+001
      vertex  1.270000e+002 2.842171e-014 1.500000e+001
      vertex  1.267118e+002 6.394885e-014 1.792636e+001
    endloop
  endfacet
  facet normal 0.000000e+000 1.000000e+000 0.000000e+000
    outer loop
      vertex  1.149264e+002 4.900000e+001 2.971178e+001
      vertex  1.139134e+002 4.900000e+001 1.961940e+001
      vertex  1.120000e+002 4.900000e+001 2.000000e+001
    endloop
  endfacet
  facet normal 2.902847e-001 0.000000e+000 9.569404e-001
    outer loop
      vertex  1.149264e+002 4.900000e+001 2.971178e+001
      vertex  1.149264e+002 2.131628e-014 2.971178e+001
      vertex  1.177402e+002 2.842171e-014 2.885819e+001
    endloop
  endfacet
  facet normal 4.806715e-001 8.769007e-001 0.000000e+000
    outer loop
      vertex  2.084352e+001 1.271552e+001 7.031599e+000
      vertex  2.151655e+001 1.234660e+001 2.298481e+001
      vertex  2.223438e+001 1.195313e+001 2.298481e+001
    endloop
  endfacet
  facet normal -3.189604e-001 9.477680e-001 0.000000e+000
    outer loop
      vertex  6.750000e+000 1.404688e+001 7.031599e+000
      vertex  9.187500e+000 1.486719e+001 2.298481e+001
      vertex  9.187500e+000 1.486719e+001 7.031599e+000
    endloop
  endfacet
  facet normal 4.713960e-001 0.000000e+000 -8.819216e-001
    outer loop
      vertex  1.203336e+002 4.900000e+001 2.527956e+000
      vertex  1.177402e+002 1.421085e-014 1.141807e+000
      vertex  1.177402e+002 4.900000e+001 1.141807e+000
    endloop
  endfacet
  facet normal 0.000000e+000 1.000000e+000 -0.000000e+000
    outer loop
      vertex  2.889854e+001 8.000000e+000 9.863013e+000
      vertex  2.887768e+001 8.000000e+000 2.298481e+001
      vertex  6.349819e+001 8.000000e+000 2.000000e+001
    endloop
  endfacet
  facet normal 0.000000e+000 0.000000e+000 -1.000000e+000
    outer loop
      vertex  1.150000e+001 1.523438e+001 7.031599e+000
      vertex  2.571761e+001 9.819611e+000 7.031599e+000
      vertex  2.693641e+001 9.075743e+000 7.031599e+000
    endloop
  endfacet
  facet normal 0.000000e+000 1.000000e+000 -0.000000e+000
    outer loop
      vertex  1.062598e+002 4.900000e+001 1.141807e+000
      vertex  1.036664e+002 4.900000e+001 2.527956e+000
      vertex  1.100866e+002 4.900000e+001 1.038060e+001
    endloop
  endfacet
  facet normal 9.801719e-002 0.000000e+000 -9.951848e-001
    outer loop
      vertex  1.149264e+002 4.900000e+001 2.882208e-001
      vertex  1.120000e+002 2.131628e-014 0.000000e+000
      vertex  1.120000e+002 4.900000e+001 3.552714e-015
    endloop
  endfacet
  facet normal -6.343933e-001 -0.000000e+000 -7.730105e-001
    outer loop
      vertex  1.013934e+002 4.900000e+001 4.393398e+000
      vertex  1.036664e+002 4.900000e+001 2.527956e+000
      vertex  1.013934e+002 2.842171e-014 4.393398e+000
    endloop
  endfacet
  facet normal 0.000000e+000 1.000000e+000 0.000000e+000
    outer loop
      vertex  9.700000e+001 4.900000e+001 1.500000e+001
      vertex  9.728822e+001 4.900000e+001 1.792636e+001
      vertex  1.070000e+002 4.900000e+001 1.500000e+001
    endloop
  endfacet
  facet normal 0.000000e+000 1.000000e+000 0.000000e+000
    outer loop
      vertex  6.349819e+001 8.000000e+000 2.000000e+001
      vertex  9.814181e+001 8.000000e+000 2.074025e+001
      vertex  9.791725e+001 8.000000e+000 2.000000e+001
    endloop
  endfacet
  facet normal 8.819216e-001 0.000000e+000 -4.713962e-001
    outer loop
      vertex  1.258582e+002 4.900000e+001 9.259748e+000
      vertex  1.258582e+002 1.421085e-014 9.259748e+000
      vertex  1.244720e+002 1.421085e-014 6.666447e+000
    endloop
  endfacet
  facet normal -9.951847e-001 0.000000e+000 9.801797e-002
    outer loop
      vertex  9.728822e+001 1.549039e+001 1.792636e+001
      vertex  9.700000e+001 4.900000e+001 1.500000e+001
      vertex  9.700000e+001 1.542650e+001 1.500000e+001
    endloop
  endfacet
  facet normal -9.569409e-001 0.000000e+000 2.902826e-001
    outer loop
      vertex  9.791725e+001 1.562983e+001 2.000000e+001
      vertex  9.728822e+001 4.900000e+001 1.792636e+001
      vertex  9.728822e+001 1.549039e+001 1.792636e+001
    endloop
  endfacet
  facet normal 7.730108e-001 0.000000e+000 6.343928e-001
    outer loop
      vertex  1.226066e+002 4.900000e+001 2.560660e+001
      vertex  1.226066e+002 2.842171e-014 2.560660e+001
      vertex  1.244720e+002 5.684342e-014 2.333355e+001
    endloop
  endfacet
  facet normal -8.819216e-001 -0.000000e+000 -4.713962e-001
    outer loop
      vertex  9.814181e+001 4.900000e+001 9.259748e+000
      vertex  9.952795e+001 4.900000e+001 6.666447e+000
      vertex  9.814181e+001 8.000000e+000 9.259748e+000
    endloop
  endfacet
  facet normal -2.164210e-001 9.763001e-001 1.497513e-007
    outer loop
      vertex  6.349819e+001 8.000000e+000 2.000000e+001
      vertex  9.728822e+001 1.549039e+001 1.792636e+001
      vertex  9.700000e+001 1.542650e+001 1.500000e+001
    endloop
  endfacet
  facet normal -7.701454e-001 6.378685e-001 0.000000e+000
    outer loop
      vertex  3.945313e-001 9.179688e+000 7.031599e+000
      vertex  1.242188e+000 1.020313e+001 2.298481e+001
      vertex  1.242188e+000 1.020313e+001 7.031599e+000
    endloop
  endfacet
  facet normal -9.951846e-001 0.000000e+000 9.801795e-002
    outer loop
      vertex  9.700000e+001 4.900000e+001 1.500000e+001
      vertex  9.728822e+001 1.549039e+001 1.792636e+001
      vertex  9.728822e+001 4.900000e+001 1.792636e+001
    endloop
  endfacet
  facet normal -7.730108e-001 0.000000e+000 6.343928e-001
    outer loop
      vertex  9.952795e+001 4.900000e+001 2.333355e+001
      vertex  1.013934e+002 2.131628e-014 2.560660e+001
      vertex  1.013934e+002 4.900000e+001 2.560660e+001
    endloop
  endfacet
  facet normal -9.569405e-001 1.026562e-007 2.902841e-001
    outer loop
      vertex  9.814181e+001 4.900000e+001 2.074025e+001
      vertex  9.728822e+001 4.900000e+001 1.792636e+001
      vertex  9.791725e+001 1.562983e+001 2.000000e+001
    endloop
  endfacet
  facet normal -8.819219e-001 0.000000e+000 4.713956e-001
    outer loop
      vertex  9.934155e+001 8.000000e+000 2.298481e+001
      vertex  9.814181e+001 4.900000e+001 2.074025e+001
      vertex  9.814181e+001 8.000000e+000 2.074025e+001
    endloop
  endfacet
  facet normal -9.569392e-001 0.000000e+000 2.902884e-001
    outer loop
      vertex  9.791725e+001 1.562983e+001 2.000000e+001
      vertex  9.791725e+001 8.000000e+000 2.000000e+001
      vertex  9.814181e+001 8.000000e+000 2.074025e+001
    endloop
  endfacet
  facet normal -9.569392e-001 0.000000e+000 2.902884e-001
    outer loop
      vertex  9.791725e+001 1.562983e+001 2.000000e+001
      vertex  9.814181e+001 8.000000e+000 2.074025e+001
      vertex  9.814181e+001 4.900000e+001 2.074025e+001
    endloop
  endfacet
  facet normal -0.000000e+000 1.000000e+000 0.000000e+000
    outer loop
      vertex  9.700000e+001 4.900000e+001 1.500000e+001
      vertex  1.070000e+002 4.900000e+001 1.500000e+001
      vertex  9.728822e+001 4.900000e+001 1.207365e+001
    endloop
  endfacet
  facet normal 9.569406e-001 0.000000e+000 -2.902840e-001
    outer loop
      vertex  1.267118e+002 4.900000e+001 1.207365e+001
      vertex  1.258582e+002 1.421085e-014 9.259748e+000
      vertex  1.258582e+002 4.900000e+001 9.259748e+000
    endloop
  endfacet
  facet normal 4.713959e-001 0.000000e+000 8.819218e-001
    outer loop
      vertex  1.177402e+002 4.900000e+001 2.885819e+001
      vertex  1.203336e+002 2.842171e-014 2.747204e+001
      vertex  1.203336e+002 4.900000e+001 2.747204e+001
    endloop
  endfacet
  facet normal -9.569392e-001 -0.000000e+000 -2.902884e-001
    outer loop
      vertex  9.814181e+001 4.900000e+001 9.259748e+000
      vertex  9.814181e+001 8.000000e+000 9.259748e+000
      vertex  9.791725e+001 1.562983e+001 1.000000e+001
    endloop
  endfacet
  facet normal -7.701454e-001 6.378685e-001 0.000000e+000
    outer loop
      vertex  3.945313e-001 9.179688e+000 7.031599e+000
      vertex  3.945313e-001 9.179688e+000 2.298481e+001
      vertex  1.242188e+000 1.020313e+001 2.298481e+001
    endloop
  endfacet
  facet normal 0.000000e+000 0.000000e+000 -1.000000e+000
    outer loop
      vertex  9.933278e+001 7.105427e-015 7.031599e+000
      vertex  2.887201e+001 8.000000e+000 7.031599e+000
      vertex  9.933278e+001 8.000000e+000 7.031599e+000
    endloop
  endfacet
  facet normal 5.154429e-001 8.569239e-001 0.000000e+000
    outer loop
      vertex  2.223438e+001 1.195313e+001 7.031599e+000
      vertex  2.431250e+001 1.070313e+001 2.298481e+001
      vertex  2.431250e+001 1.070313e+001 7.031599e+000
    endloop
  endfacet
  facet normal -3.189604e-001 9.477680e-001 0.000000e+000
    outer loop
      vertex  6.750000e+000 1.404688e+001 7.031599e+000
      vertex  6.750000e+000 1.404688e+001 2.298481e+001
      vertex  9.187500e+000 1.486719e+001 2.298481e+001
    endloop
  endfacet
  facet normal 0.000000e+000 1.000000e+000 0.000000e+000
    outer loop
      vertex  1.270000e+002 4.900000e+001 1.500000e+001
      vertex  1.267118e+002 4.900000e+001 1.207365e+001
      vertex  1.170000e+002 4.900000e+001 1.500000e+001
    endloop
  endfacet
  facet normal 1.817065e-001 9.833528e-001 0.000000e+000
    outer loop
      vertex  1.371875e+001 1.519531e+001 7.031599e+000
      vertex  1.587500e+001 1.479688e+001 2.298481e+001
      vertex  1.587500e+001 1.479688e+001 7.031599e+000
    endloop
  endfacet
  facet normal 5.209618e-001 8.535790e-001 1.300077e-003
    outer loop
      vertex  2.571761e+001 9.819611e+000 7.031599e+000
      vertex  2.637500e+001 9.406250e+000 1.500000e+001
      vertex  2.693641e+001 9.075743e+000 7.031599e+000
    endloop
  endfacet
  facet normal 3.172735e-001 9.483341e-001 -0.000000e+000
    outer loop
      vertex  1.587500e+001 1.479688e+001 7.031599e+000
      vertex  1.587500e+001 1.479688e+001 2.298481e+001
      vertex  1.800000e+001 1.408594e+001 2.298481e+001
    endloop
  endfacet
  facet normal 3.172735e-001 9.483341e-001 0.000000e+000
    outer loop
      vertex  1.587500e+001 1.479688e+001 7.031599e+000
      vertex  1.800000e+001 1.408594e+001 2.298481e+001
      vertex  1.800000e+001 1.408594e+001 7.031599e+000
    endloop
  endfacet
  facet normal -1.568192e-001 9.876273e-001 0.000000e+000
    outer loop
      vertex  1.150000e+001 1.523438e+001 2.298481e+001
      vertex  9.187500e+000 1.486719e+001 7.031599e+000
      vertex  9.187500e+000 1.486719e+001 2.298481e+001
    endloop
  endfacet
  facet normal -9.801719e-002 7.215523e-017 -9.951848e-001
    outer loop
      vertex  1.120000e+002 4.900000e+001 3.552714e-015
      vertex  1.120000e+002 2.131628e-014 0.000000e+000
      vertex  1.090736e+002 2.842171e-014 2.882208e-001
    endloop
  endfacet
  facet normal 8.819216e-001 0.000000e+000 -4.713962e-001
    outer loop
      vertex  1.258582e+002 4.900000e+001 9.259748e+000
      vertex  1.244720e+002 1.421085e-014 6.666447e+000
      vertex  1.244720e+002 4.900000e+001 6.666447e+000
    endloop
  endfacet
  facet normal 0.000000e+000 1.000000e+000 -0.000000e+000
    outer loop
      vertex  6.349819e+001 8.000000e+000 2.000000e+001
      vertex  2.887768e+001 8.000000e+000 2.298481e+001
      vertex  9.934155e+001 8.000000e+000 2.298481e+001
    endloop
  endfacet
  facet normal -8.819216e-001 4.350667e-008 4.713962e-001
    outer loop
      vertex  9.952795e+001 4.900000e+001 2.333355e+001
      vertex  9.814181e+001 4.900000e+001 2.074025e+001
      vertex  9.934155e+001 8.000000e+000 2.298481e+001
    endloop
  endfacet
  facet normal 8.819216e-001 0.000000e+000 4.713962e-001
    outer loop
      vertex  1.258582e+002 6.394885e-014 2.074025e+001
      vertex  1.244720e+002 4.900000e+001 2.333355e+001
      vertex  1.244720e+002 5.684342e-014 2.333355e+001
    endloop
  endfacet
  facet normal 0.000000e+000 0.000000e+000 1.000000e+000
    outer loop
      vertex  1.371875e+001 1.519531e+001 2.298481e+001
      vertex  2.571625e+001 9.820462e+000 2.298481e+001
      vertex  2.431250e+001 1.070313e+001 2.298481e+001
    endloop
  endfacet
  facet normal 6.343932e-001 0.000000e+000 7.730106e-001
    outer loop
      vertex  1.226066e+002 2.842171e-014 2.560660e+001
      vertex  1.203336e+002 4.900000e+001 2.747204e+001
      vertex  1.203336e+002 2.842171e-014 2.747204e+001
    endloop
  endfacet
  facet normal -9.569392e-001 -0.000000e+000 -2.902884e-001
    outer loop
      vertex  9.791725e+001 1.562983e+001 1.000000e+001
      vertex  9.814181e+001 8.000000e+000 9.259748e+000
      vertex  9.791725e+001 8.000000e+000 1.000000e+001
    endloop
  endfacet
  facet normal 6.343933e-001 0.000000e+000 -7.730105e-001
    outer loop
      vertex  1.203336e+002 4.900000e+001 2.527956e+000
      vertex  1.226066e+002 4.900000e+001 4.393398e+000
      vertex  1.226066e+002 1.421085e-014 4.393398e+000
    endloop
  endfacet
  facet normal 6.343933e-001 0.000000e+000 -7.730105e-001
    outer loop
      vertex  1.203336e+002 4.900000e+001 2.527956e+000
      vertex  1.226066e+002 1.421085e-014 4.393398e+000
      vertex  1.203336e+002 7.105427e-015 2.527956e+000
    endloop
  endfacet
  facet normal 0.000000e+000 1.000000e+000 0.000000e+000
    outer loop
      vertex  1.155355e+002 1.310000e+001 1.146447e+001
      vertex  1.139134e+002 1.310000e+001 1.038060e+001
      vertex  1.120000e+002 1.310000e+001 1.000000e+001
    endloop
  endfacet
  facet normal 0.000000e+000 1.000000e+000 -0.000000e+000
    outer loop
      vertex  1.155355e+002 1.310000e+001 1.146447e+001
      vertex  1.120000e+002 1.310000e+001 1.000000e+001
      vertex  1.166194e+002 1.310000e+001 1.308658e+001
    endloop
  endfacet
  facet normal 0.000000e+000 1.000000e+000 0.000000e+000
    outer loop
      vertex  1.120000e+002 1.310000e+001 1.000000e+001
      vertex  1.100866e+002 1.310000e+001 1.038060e+001
      vertex  1.084645e+002 1.310000e+001 1.146447e+001
    endloop
  endfacet
  facet normal 0.000000e+000 1.000000e+000 -0.000000e+000
    outer loop
      vertex  1.120000e+002 1.310000e+001 1.000000e+001
      vertex  1.084645e+002 1.310000e+001 1.146447e+001
      vertex  1.166194e+002 1.310000e+001 1.308658e+001
    endloop
  endfacet
  facet normal 0.000000e+000 1.000000e+000 -0.000000e+000
    outer loop
      vertex  1.073806e+002 1.310000e+001 1.308658e+001
      vertex  1.070000e+002 1.310000e+001 1.500000e+001
      vertex  1.073806e+002 1.310000e+001 1.691342e+001
    endloop
  endfacet
  facet normal 0.000000e+000 1.000000e+000 0.000000e+000
    outer loop
      vertex  1.139134e+002 1.310000e+001 1.961940e+001
      vertex  1.155355e+002 1.310000e+001 1.853553e+001
      vertex  1.166194e+002 1.310000e+001 1.691342e+001
    endloop
  endfacet
  facet normal -9.807855e-001 0.000000e+000 1.950892e-001
    outer loop
      vertex  1.170000e+002 1.310000e+001 1.500000e+001
      vertex  1.170000e+002 4.900000e+001 1.500000e+001
      vertex  1.166194e+002 4.900000e+001 1.308658e+001
    endloop
  endfacet
  facet normal -9.807855e-001 0.000000e+000 1.950892e-001
    outer loop
      vertex  1.170000e+002 1.310000e+001 1.500000e+001
      vertex  1.166194e+002 4.900000e+001 1.308658e+001
      vertex  1.166194e+002 1.310000e+001 1.308658e+001
    endloop
  endfacet
  facet normal -1.950904e-001 0.000000e+000 9.807853e-001
    outer loop
      vertex  1.139134e+002 1.310000e+001 1.038060e+001
      vertex  1.139134e+002 4.900000e+001 1.038060e+001
      vertex  1.120000e+002 4.900000e+001 1.000000e+001
    endloop
  endfacet
  facet normal -1.950904e-001 0.000000e+000 9.807853e-001
    outer loop
      vertex  1.139134e+002 1.310000e+001 1.038060e+001
      vertex  1.120000e+002 4.900000e+001 1.000000e+001
      vertex  1.120000e+002 1.310000e+001 1.000000e+001
    endloop
  endfacet
  facet normal 9.807855e-001 -0.000000e+000 1.950892e-001
    outer loop
      vertex  1.073806e+002 1.310000e+001 1.308658e+001
      vertex  1.073806e+002 4.900000e+001 1.308658e+001
      vertex  1.070000e+002 4.900000e+001 1.500000e+001
    endloop
  endfacet
  facet normal 9.807855e-001 0.000000e+000 1.950892e-001
    outer loop
      vertex  1.073806e+002 1.310000e+001 1.308658e+001
      vertex  1.070000e+002 4.900000e+001 1.500000e+001
      vertex  1.070000e+002 1.310000e+001 1.500000e+001
    endloop
  endfacet
  facet normal 9.807855e-001 0.000000e+000 -1.950891e-001
    outer loop
      vertex  1.070000e+002 1.310000e+001 1.500000e+001
      vertex  1.070000e+002 4.900000e+001 1.500000e+001
      vertex  1.073806e+002 4.900000e+001 1.691342e+001
    endloop
  endfacet
  facet normal 9.807855e-001 0.000000e+000 -1.950891e-001
    outer loop
      vertex  1.070000e+002 1.310000e+001 1.500000e+001
      vertex  1.073806e+002 4.900000e+001 1.691342e+001
      vertex  1.073806e+002 1.310000e+001 1.691342e+001
    endloop
  endfacet
  facet normal 0.000000e+000 1.000000e+000 -0.000000e+000
    outer loop
      vertex  1.013934e+002 4.900000e+001 4.393398e+000
      vertex  9.952795e+001 4.900000e+001 6.666447e+000
      vertex  1.073806e+002 4.900000e+001 1.308658e+001
    endloop
  endfacet
  facet normal 0.000000e+000 1.000000e+000 0.000000e+000
    outer loop
      vertex  1.013934e+002 4.900000e+001 4.393398e+000
      vertex  1.073806e+002 4.900000e+001 1.308658e+001
      vertex  1.084645e+002 4.900000e+001 1.146447e+001
    endloop
  endfacet
  facet normal 4.806605e-001 8.768803e-001 -6.822770e-003
    outer loop
      vertex  2.151655e+001 1.234660e+001 2.298481e+001
      vertex  1.944236e+001 1.335943e+001 7.031599e+000
      vertex  1.872384e+001 1.375329e+001 7.031599e+000
    endloop
  endfacet
  facet normal 4.175648e-001 9.086200e-001 7.021138e-003
    outer loop
      vertex  2.151655e+001 1.234660e+001 2.298481e+001
      vertex  1.872384e+001 1.375329e+001 7.031599e+000
      vertex  2.079340e+001 1.267893e+001 2.298481e+001
    endloop
  endfacet
  facet normal 0.000000e+000 1.000000e+000 0.000000e+000
    outer loop
      vertex  1.139134e+002 4.900000e+001 1.038060e+001
      vertex  1.149264e+002 4.900000e+001 2.882208e-001
      vertex  1.120000e+002 4.900000e+001 3.552714e-015
    endloop
  endfacet
  facet normal 0.000000e+000 1.000000e+000 0.000000e+000
    outer loop
      vertex  1.139134e+002 4.900000e+001 1.038060e+001
      vertex  1.120000e+002 4.900000e+001 3.552714e-015
      vertex  1.120000e+002 4.900000e+001 1.000000e+001
    endloop
  endfacet
  facet normal 1.760291e-002 9.998450e-001 0.000000e+000
    outer loop
      vertex  1.371875e+001 1.519531e+001 7.031599e+000
      vertex  1.150000e+001 1.523438e+001 7.031599e+000
      vertex  1.150000e+001 1.523438e+001 2.298481e+001
    endloop
  endfacet
  facet normal 1.760291e-002 9.998450e-001 -0.000000e+000
    outer loop
      vertex  1.371875e+001 1.519531e+001 7.031599e+000
      vertex  1.150000e+001 1.523438e+001 2.298481e+001
      vertex  1.371875e+001 1.519531e+001 2.298481e+001
    endloop
  endfacet
  facet normal -4.640440e-016 -1.000000e+000 -2.382377e-015
    outer loop
      vertex  1.267118e+002 3.552714e-014 1.207365e+001
      vertex  1.270000e+002 2.842171e-014 1.500000e+001
      vertex  9.952795e+001 2.131628e-014 2.333355e+001
    endloop
  endfacet
  facet normal 7.337545e-015 -1.000000e+000 1.645233e-014
    outer loop
      vertex  1.267118e+002 3.552714e-014 1.207365e+001
      vertex  9.952795e+001 2.131628e-014 2.333355e+001
      vertex  9.934155e+001 1.421085e-014 2.298481e+001
    endloop
  endfacet
  facet normal 0.000000e+000 0.000000e+000 1.000000e+000
    outer loop
      vertex  2.079340e+001 1.267893e+001 2.298481e+001
      vertex  1.940185e+001 1.344170e+001 2.298481e+001
      vertex  1.800000e+001 1.408594e+001 2.298481e+001
    endloop
  endfacet
  facet normal 0.000000e+000 0.000000e+000 1.000000e+000
    outer loop
      vertex  2.079340e+001 1.267893e+001 2.298481e+001
      vertex  1.800000e+001 1.408594e+001 2.298481e+001
      vertex  1.587500e+001 1.479688e+001 2.298481e+001
    endloop
  endfacet
  facet normal 0.000000e+000 0.000000e+000 1.000000e+000
    outer loop
      vertex  2.757380e+001 8.700506e+000 2.298481e+001
      vertex  0.000000e+000 2.131628e-014 2.298481e+001
      vertex  2.887768e+001 8.000000e+000 2.298481e+001
    endloop
  endfacet
  facet normal -2.164210e-001 9.763001e-001 0.000000e+000
    outer loop
      vertex  6.349819e+001 8.000000e+000 1.000000e+001
      vertex  6.349819e+001 8.000000e+000 2.000000e+001
      vertex  9.700000e+001 1.542650e+001 1.500000e+001
    endloop
  endfacet
  facet normal -2.164210e-001 9.763001e-001 -1.497513e-007
    outer loop
      vertex  6.349819e+001 8.000000e+000 1.000000e+001
      vertex  9.700000e+001 1.542650e+001 1.500000e+001
      vertex  9.728822e+001 1.549039e+001 1.207365e+001
    endloop
  endfacet
  facet normal 0.000000e+000 1.000000e+000 0.000000e+000
    outer loop
      vertex  1.139134e+002 4.900000e+001 1.961940e+001
      vertex  1.177402e+002 4.900000e+001 2.885819e+001
      vertex  1.203336e+002 4.900000e+001 2.747204e+001
    endloop
  endfacet
  facet normal -0.000000e+000 1.000000e+000 0.000000e+000
    outer loop
      vertex  1.139134e+002 4.900000e+001 1.961940e+001
      vertex  1.203336e+002 4.900000e+001 2.747204e+001
      vertex  1.155355e+002 4.900000e+001 1.853553e+001
    endloop
  endfacet
  facet normal -8.819194e-001 0.000000e+000 4.714002e-001
    outer loop
      vertex  9.952795e+001 2.131628e-014 2.333355e+001
      vertex  9.952795e+001 4.900000e+001 2.333355e+001
      vertex  9.934155e+001 8.000000e+000 2.298481e+001
    endloop
  endfacet
  facet normal -8.819194e-001 0.000000e+000 4.714002e-001
    outer loop
      vertex  9.952795e+001 2.131628e-014 2.333355e+001
      vertex  9.934155e+001 8.000000e+000 2.298481e+001
      vertex  9.934155e+001 1.421085e-014 2.298481e+001
    endloop
  endfacet
  facet normal -1.430631e-016 -1.000000e+000 -0.000000e+000
    outer loop
      vertex  0.000000e+000 2.131628e-014 2.298481e+001
      vertex  0.000000e+000 2.131628e-014 7.031599e+000
      vertex  9.933278e+001 7.105427e-015 7.031599e+000
    endloop
  endfacet
  facet normal -7.152524e-017 -1.000000e+000 4.454310e-016
    outer loop
      vertex  0.000000e+000 2.131628e-014 2.298481e+001
      vertex  9.933278e+001 7.105427e-015 7.031599e+000
      vertex  9.934155e+001 1.421085e-014 2.298481e+001
    endloop
  endfacet
  facet normal -3.277045e-014 -1.000000e+000 1.751614e-014
    outer loop
      vertex  1.244720e+002 1.421085e-014 6.666447e+000
      vertex  1.258582e+002 1.421085e-014 9.259748e+000
      vertex  1.267118e+002 3.552714e-014 1.207365e+001
    endloop
  endfacet
  facet normal 2.017271e-015 -1.000000e+000 3.106625e-015
    outer loop
      vertex  1.244720e+002 1.421085e-014 6.666447e+000
      vertex  1.267118e+002 3.552714e-014 1.207365e+001
      vertex  9.934155e+001 1.421085e-014 2.298481e+001
    endloop
  endfacet
  facet normal 0.000000e+000 0.000000e+000 -1.000000e+000
    outer loop
      vertex  3.253906e+000 1.199805e+001 7.031599e+000
      vertex  4.351563e+000 1.280859e+001 7.031599e+000
      vertex  6.750000e+000 1.404688e+001 7.031599e+000
    endloop
  endfacet
  facet normal -3.595478e-015 -1.000000e+000 -1.185270e-014
    outer loop
      vertex  1.036664e+002 2.131628e-014 2.527956e+000
      vertex  1.062598e+002 2.842171e-014 1.141807e+000
      vertex  1.090736e+002 2.842171e-014 2.882208e-001
    endloop
  endfacet
  facet normal -1.214041e-015 -1.000000e+000 -6.103398e-015
    outer loop
      vertex  1.036664e+002 2.131628e-014 2.527956e+000
      vertex  1.090736e+002 2.842171e-014 2.882208e-001
      vertex  1.149264e+002 2.131628e-014 2.882208e-001
    endloop
  endfacet
  facet normal 9.574484e-015 -1.000000e+000 -7.857567e-015
    outer loop
      vertex  1.203336e+002 7.105427e-015 2.527956e+000
      vertex  1.226066e+002 1.421085e-014 4.393398e+000
      vertex  1.244720e+002 1.421085e-014 6.666447e+000
    endloop
  endfacet
  facet normal 6.759464e-016 -1.000000e+000 1.040967e-015
    outer loop
      vertex  1.203336e+002 7.105427e-015 2.527956e+000
      vertex  1.244720e+002 1.421085e-014 6.666447e+000
      vertex  9.934155e+001 1.421085e-014 2.298481e+001
    endloop
  endfacet
  facet normal 5.838742e-015 -1.000000e+000 1.092354e-014
    outer loop
      vertex  1.203336e+002 2.842171e-014 2.747204e+001
      vertex  1.177402e+002 2.842171e-014 2.885819e+001
      vertex  1.149264e+002 2.131628e-014 2.971178e+001
    endloop
  endfacet
  facet normal 1.687733e-015 -1.000000e+000 9.021118e-016
    outer loop
      vertex  1.203336e+002 2.842171e-014 2.747204e+001
      vertex  1.149264e+002 2.131628e-014 2.971178e+001
      vertex  1.270000e+002 2.842171e-014 1.500000e+001
    endloop
  endfacet
  facet normal -0.000000e+000 1.000000e+000 0.000000e+000
    outer loop
      vertex  1.036664e+002 4.900000e+001 2.747204e+001
      vertex  1.062598e+002 4.900000e+001 2.885819e+001
      vertex  1.100866e+002 4.900000e+001 1.961940e+001
    endloop
  endfacet
  facet normal 0.000000e+000 1.000000e+000 0.000000e+000
    outer loop
      vertex  1.036664e+002 4.900000e+001 2.747204e+001
      vertex  1.100866e+002 4.900000e+001 1.961940e+001
      vertex  1.084645e+002 4.900000e+001 1.853553e+001
    endloop
  endfacet
  facet normal 1.037649e-014 -1.000000e+000 -3.139597e-014
    outer loop
      vertex  1.120000e+002 2.131628e-014 3.000000e+001
      vertex  1.090736e+002 0.000000e+000 2.971178e+001
      vertex  1.036664e+002 1.421085e-014 2.747204e+001
    endloop
  endfacet
  facet normal 3.185534e-015 -1.000000e+000 -7.690562e-015
    outer loop
      vertex  1.120000e+002 2.131628e-014 3.000000e+001
      vertex  1.036664e+002 1.421085e-014 2.747204e+001
      vertex  1.013934e+002 2.131628e-014 2.560660e+001
    endloop
  endfacet
  facet normal 2.902847e-001 0.000000e+000 -9.569404e-001
    outer loop
      vertex  1.149264e+002 4.900000e+001 2.882208e-001
      vertex  1.177402e+002 4.900000e+001 1.141807e+000
      vertex  1.177402e+002 1.421085e-014 1.141807e+000
    endloop
  endfacet
  facet normal 2.902847e-001 0.000000e+000 -9.569404e-001
    outer loop
      vertex  1.149264e+002 4.900000e+001 2.882208e-001
      vertex  1.177402e+002 1.421085e-014 1.141807e+000
      vertex  1.149264e+002 2.131628e-014 2.882208e-001
    endloop
  endfacet
  facet normal 0.000000e+000 0.000000e+000 -1.000000e+000
    outer loop
      vertex  2.571761e+001 9.819611e+000 7.031599e+000
      vertex  1.150000e+001 1.523438e+001 7.031599e+000
      vertex  1.371875e+001 1.519531e+001 7.031599e+000
    endloop
  endfacet
  facet normal 0.000000e+000 0.000000e+000 -1.000000e+000
    outer loop
      vertex  2.571761e+001 9.819611e+000 7.031599e+000
      vertex  1.371875e+001 1.519531e+001 7.031599e+000
      vertex  2.431250e+001 1.070313e+001 7.031599e+000
    endloop
  endfacet
  facet normal 9.951847e-001 0.000000e+000 9.801795e-002
    outer loop
      vertex  1.270000e+002 4.900000e+001 1.500000e+001
      vertex  1.267118e+002 4.900000e+001 1.792636e+001
      vertex  1.267118e+002 6.394885e-014 1.792636e+001
    endloop
  endfacet
  facet normal 9.951847e-001 0.000000e+000 9.801795e-002
    outer loop
      vertex  1.270000e+002 4.900000e+001 1.500000e+001
      vertex  1.267118e+002 6.394885e-014 1.792636e+001
      vertex  1.270000e+002 2.842171e-014 1.500000e+001
    endloop
  endfacet
  facet normal -5.749319e-015 -1.000000e+000 -1.722212e-014
    outer loop
      vertex  9.952795e+001 0.000000e+000 6.666447e+000
      vertex  1.013934e+002 2.842171e-014 4.393398e+000
      vertex  1.149264e+002 2.131628e-014 2.882208e-001
    endloop
  endfacet
  facet normal -8.724159e-016 -1.000000e+000 -5.448238e-015
    outer loop
      vertex  9.952795e+001 0.000000e+000 6.666447e+000
      vertex  1.149264e+002 2.131628e-014 2.882208e-001
      vertex  1.177402e+002 1.421085e-014 1.141807e+000
    endloop
  endfacet
  facet normal 0.000000e+000 0.000000e+000 1.000000e+000
    outer loop
      vertex  6.750000e+000 1.404688e+001 2.298481e+001
      vertex  4.351563e+000 1.280859e+001 2.298481e+001
      vertex  3.253906e+000 1.199805e+001 2.298481e+001
    endloop
  endfacet
  facet normal -0.000000e+000 0.000000e+000 1.000000e+000
    outer loop
      vertex  6.750000e+000 1.404688e+001 2.298481e+001
      vertex  3.253906e+000 1.199805e+001 2.298481e+001
      vertex  9.187500e+000 1.486719e+001 2.298481e+001
    endloop
  endfacet
  facet normal 3.411942e-014 -1.000000e+000 1.549727e-014
    outer loop
      vertex  1.258582e+002 6.394885e-014 2.074025e+001
      vertex  1.244720e+002 5.684342e-014 2.333355e+001
      vertex  1.226066e+002 2.842171e-014 2.560660e+001
    endloop
  endfacet
  facet normal 0.000000e+000 0.000000e+000 1.000000e+000
    outer loop
      vertex  2.223438e+001 1.195313e+001 2.298481e+001
      vertex  2.151655e+001 1.234660e+001 2.298481e+001
      vertex  2.079340e+001 1.267893e+001 2.298481e+001
    endloop
  endfacet
  facet normal 0.000000e+000 0.000000e+000 1.000000e+000
    outer loop
      vertex  2.223438e+001 1.195313e+001 2.298481e+001
      vertex  2.079340e+001 1.267893e+001 2.298481e+001
      vertex  1.587500e+001 1.479688e+001 2.298481e+001
    endloop
  endfacet
  facet normal -6.657358e-001 7.461457e-001 7.895778e-003
    outer loop
      vertex  4.351563e+000 1.280859e+001 2.298481e+001
      vertex  3.253906e+000 1.199805e+001 7.031599e+000
      vertex  1.242188e+000 1.020313e+001 7.031599e+000
    endloop
  endfacet
  facet normal -5.939565e-001 8.043460e-001 -1.559966e-002
    outer loop
      vertex  4.351563e+000 1.280859e+001 2.298481e+001
      vertex  1.242188e+000 1.020313e+001 7.031599e+000
      vertex  3.253906e+000 1.199805e+001 2.298481e+001
    endloop
  endfacet
  facet normal 7.976334e-015 -1.000000e+000 2.372218e-014
    outer loop
      vertex  9.933278e+001 7.105427e-015 7.031599e+000
      vertex  9.952795e+001 0.000000e+000 6.666447e+000
      vertex  1.177402e+002 1.421085e-014 1.141807e+000
    endloop
  endfacet
  facet normal -7.845225e-016 -1.000000e+000 -3.658279e-015
    outer loop
      vertex  9.933278e+001 7.105427e-015 7.031599e+000
      vertex  1.177402e+002 1.421085e-014 1.141807e+000
      vertex  1.203336e+002 7.105427e-015 2.527956e+000
    endloop
  endfacet
  facet normal 0.000000e+000 0.000000e+000 1.000000e+000
    outer loop
      vertex  0.000000e+000 2.131628e-014 2.298481e+001
      vertex  9.187500e+000 1.486719e+001 2.298481e+001
      vertex  3.253906e+000 1.199805e+001 2.298481e+001
    endloop
  endfacet
  facet normal 0.000000e+000 0.000000e+000 1.000000e+000
    outer loop
      vertex  0.000000e+000 2.131628e-014 2.298481e+001
      vertex  3.253906e+000 1.199805e+001 2.298481e+001
      vertex  7.105427e-015 8.571721e+000 2.298481e+001
    endloop
  endfacet
  facet normal 4.175747e-001 9.086426e-001 0.000000e+000
    outer loop
      vertex  1.872384e+001 1.375329e+001 7.031599e+000
      vertex  1.800000e+001 1.408594e+001 7.031599e+000
      vertex  1.800000e+001 1.408594e+001 2.298481e+001
    endloop
  endfacet
  facet normal 4.175750e-001 9.086425e-001 1.331941e-008
    outer loop
      vertex  1.872384e+001 1.375329e+001 7.031599e+000
      vertex  1.800000e+001 1.408594e+001 2.298481e+001
      vertex  1.940185e+001 1.344170e+001 2.298481e+001
    endloop
  endfacet
  facet normal 4.879797e-001 8.728546e-001 7.760604e-004
    outer loop
      vertex  2.887768e+001 8.000000e+000 2.298481e+001
      vertex  2.889854e+001 8.000000e+000 9.863013e+000
      vertex  2.637500e+001 9.406250e+000 1.500000e+001
    endloop
  endfacet
  facet normal 4.732599e-001 8.808966e-001 6.806004e-003
    outer loop
      vertex  2.887768e+001 8.000000e+000 2.298481e+001
      vertex  2.637500e+001 9.406250e+000 1.500000e+001
      vertex  2.757380e+001 8.700506e+000 2.298481e+001
    endloop
  endfacet
  facet normal 0.000000e+000 0.000000e+000 -1.000000e+000
    outer loop
      vertex  1.800000e+001 1.408594e+001 7.031599e+000
      vertex  1.872384e+001 1.375329e+001 7.031599e+000
      vertex  1.944236e+001 1.335943e+001 7.031599e+000
    endloop
  endfacet
  facet normal -0.000000e+000 -0.000000e+000 -1.000000e+000
    outer loop
      vertex  1.800000e+001 1.408594e+001 7.031599e+000
      vertex  1.944236e+001 1.335943e+001 7.031599e+000
      vertex  1.587500e+001 1.479688e+001 7.031599e+000
    endloop
  endfacet
  facet normal -0.000000e+000 1.000000e+000 0.000000e+000
    outer loop
      vertex  9.728822e+001 4.900000e+001 1.792636e+001
      vertex  9.814181e+001 4.900000e+001 2.074025e+001
      vertex  1.073806e+002 4.900000e+001 1.691342e+001
    endloop
  endfacet
  facet normal 0.000000e+000 1.000000e+000 0.000000e+000
    outer loop
      vertex  9.728822e+001 4.900000e+001 1.792636e+001
      vertex  1.073806e+002 4.900000e+001 1.691342e+001
      vertex  1.070000e+002 4.900000e+001 1.500000e+001
    endloop
  endfacet
  facet normal 0.000000e+000 1.000000e+000 -0.000000e+000
    outer loop
      vertex  1.090736e+002 4.900000e+001 2.882208e-001
      vertex  1.062598e+002 4.900000e+001 1.141807e+000
      vertex  1.100866e+002 4.900000e+001 1.038060e+001
    endloop
  endfacet
  facet normal 0.000000e+000 1.000000e+000 0.000000e+000
    outer loop
      vertex  1.090736e+002 4.900000e+001 2.882208e-001
      vertex  1.100866e+002 4.900000e+001 1.038060e+001
      vertex  1.120000e+002 4.900000e+001 1.000000e+001
    endloop
  endfacet
  facet normal 0.000000e+000 1.000000e+000 0.000000e+000
    outer loop
      vertex  1.166194e+002 4.900000e+001 1.691342e+001
      vertex  1.258582e+002 4.900000e+001 2.074025e+001
      vertex  1.267118e+002 4.900000e+001 1.792636e+001
    endloop
  endfacet
  facet normal -0.000000e+000 1.000000e+000 0.000000e+000
    outer loop
      vertex  1.166194e+002 4.900000e+001 1.691342e+001
      vertex  1.267118e+002 4.900000e+001 1.792636e+001
      vertex  1.170000e+002 4.900000e+001 1.500000e+001
    endloop
  endfacet
  facet normal -9.569411e-001 0.000000e+000 -2.902825e-001
    outer loop
      vertex  9.791725e+001 1.562983e+001 1.000000e+001
      vertex  9.728822e+001 1.549039e+001 1.207365e+001
      vertex  9.728822e+001 4.900000e+001 1.207365e+001
    endloop
  endfacet
  facet normal -9.569405e-001 1.050859e-007 -2.902840e-001
    outer loop
      vertex  9.791725e+001 1.562983e+001 1.000000e+001
      vertex  9.728822e+001 4.900000e+001 1.207365e+001
      vertex  9.814181e+001 4.900000e+001 9.259748e+000
    endloop
  endfacet
  facet normal 4.832512e-001 8.754787e-001 -2.265143e-003
    outer loop
      vertex  2.693641e+001 9.075743e+000 7.031599e+000
      vertex  2.637500e+001 9.406250e+000 1.500000e+001
      vertex  2.889854e+001 8.000000e+000 9.863013e+000
    endloop
  endfacet
  facet normal 4.911622e-001 8.710170e-001 -9.442432e-003
    outer loop
      vertex  2.693641e+001 9.075743e+000 7.031599e+000
      vertex  2.889854e+001 8.000000e+000 9.863013e+000
      vertex  2.795061e+001 8.503841e+000 7.031599e+000
    endloop
  endfacet
  facet normal -4.587535e-001 8.885636e-001 0.000000e+000
    outer loop
      vertex  6.750000e+000 1.404688e+001 2.298481e+001
      vertex  6.750000e+000 1.404688e+001 7.031599e+000
      vertex  4.351563e+000 1.280859e+001 7.031599e+000
    endloop
  endfacet
  facet normal -4.587535e-001 8.885636e-001 0.000000e+000
    outer loop
      vertex  6.750000e+000 1.404688e+001 2.298481e+001
      vertex  4.351563e+000 1.280859e+001 7.031599e+000
      vertex  4.351563e+000 1.280859e+001 2.298481e+001
    endloop
  endfacet
  facet normal 4.806626e-001 8.768844e-001 6.094607e-003
    outer loop
      vertex  2.431250e+001 1.070313e+001 2.298481e+001
      vertex  2.223438e+001 1.195313e+001 7.031599e+000
      vertex  2.084352e+001 1.271552e+001 7.031599e+000
    endloop
  endfacet
  facet normal 5.154388e-001 8.569171e-001 -3.986135e-003
    outer loop
      vertex  2.431250e+001 1.070313e+001 2.298481e+001
      vertex  2.084352e+001 1.271552e+001 7.031599e+000
      vertex  2.223438e+001 1.195313e+001 2.298481e+001
    endloop
  endfacet
  facet normal -9.951847e-001 0.000000e+000 -9.801800e-002
    outer loop
      vertex  9.728822e+001 1.549039e+001 1.207365e+001
      vertex  9.700000e+001 1.542650e+001 1.500000e+001
      vertex  9.700000e+001 4.900000e+001 1.500000e+001
    endloop
  endfacet
  facet normal -9.951846e-001 0.000000e+000 -9.801798e-002
    outer loop
      vertex  9.728822e+001 1.549039e+001 1.207365e+001
      vertex  9.700000e+001 4.900000e+001 1.500000e+001
      vertex  9.728822e+001 4.900000e+001 1.207365e+001
    endloop
  endfacet
  facet normal 5.323030e-001 8.465539e-001 -6.111196e-009
    outer loop
      vertex  2.571625e+001 9.820462e+000 2.298481e+001
      vertex  2.637500e+001 9.406250e+000 1.500000e+001
      vertex  2.571761e+001 9.819611e+000 7.031599e+000
    endloop
  endfacet
  facet normal 5.323028e-001 8.465540e-001 -6.141911e-009
    outer loop
      vertex  2.571625e+001 9.820462e+000 2.298481e+001
      vertex  2.571761e+001 9.819611e+000 7.031599e+000
      vertex  2.431250e+001 1.070313e+001 7.031599e+000
    endloop
  endfacet
  facet normal -8.819241e-001 0.000000e+000 -4.713914e-001
    outer loop
      vertex  9.933278e+001 8.000000e+000 7.031599e+000
      vertex  9.952795e+001 4.900000e+001 6.666447e+000
      vertex  9.952795e+001 0.000000e+000 6.666447e+000
    endloop
  endfacet
  facet normal -8.819241e-001 -0.000000e+000 -4.713914e-001
    outer loop
      vertex  9.933278e+001 8.000000e+000 7.031599e+000
      vertex  9.952795e+001 0.000000e+000 6.666447e+000
      vertex  9.933278e+001 7.105427e-015 7.031599e+000
    endloop
  endfacet
  facet normal 0.000000e+000 1.000000e+000 0.000000e+000
    outer loop
      vertex  2.889854e+001 8.000000e+000 9.863013e+000
      vertex  6.349819e+001 8.000000e+000 2.000000e+001
      vertex  6.349819e+001 8.000000e+000 1.000000e+001
    endloop
  endfacet
  facet normal -0.000000e+000 1.000000e+000 0.000000e+000
    outer loop
      vertex  2.889854e+001 8.000000e+000 9.863013e+000
      vertex  6.349819e+001 8.000000e+000 1.000000e+001
      vertex  2.887201e+001 8.000000e+000 7.031599e+000
    endloop
  endfacet
  facet normal 0.000000e+000 1.000000e+000 0.000000e+000
    outer loop
      vertex  1.170000e+002 4.900000e+001 1.500000e+001
      vertex  1.267118e+002 4.900000e+001 1.207365e+001
      vertex  1.258582e+002 4.900000e+001 9.259748e+000
    endloop
  endfacet
  facet normal 0.000000e+000 1.000000e+000 0.000000e+000
    outer loop
      vertex  1.170000e+002 4.900000e+001 1.500000e+001
      vertex  1.258582e+002 4.900000e+001 9.259748e+000
      vertex  1.166194e+002 4.900000e+001 1.308658e+001
    endloop
  endfacet
  facet normal 0.000000e+000 1.000000e+000 0.000000e+000
    outer loop
      vertex  1.084645e+002 1.310000e+001 1.146447e+001
      vertex  1.073806e+002 1.310000e+001 1.308658e+001
      vertex  1.073806e+002 1.310000e+001 1.691342e+001
    endloop
  endfacet
  facet normal 0.000000e+000 1.000000e+000 -0.000000e+000
    outer loop
      vertex  1.084645e+002 1.310000e+001 1.146447e+001
      vertex  1.073806e+002 1.310000e+001 1.691342e+001
      vertex  1.166194e+002 1.310000e+001 1.308658e+001
    endloop
  endfacet
  facet normal -0.000000e+000 1.000000e+000 0.000000e+000
    outer loop
      vertex  1.073806e+002 1.310000e+001 1.691342e+001
      vertex  1.120000e+002 1.310000e+001 2.000000e+001
      vertex  1.166194e+002 1.310000e+001 1.308658e+001
    endloop
  endfacet
  facet normal 0.000000e+000 1.000000e+000 0.000000e+000
    outer loop
      vertex  1.120000e+002 1.310000e+001 2.000000e+001
      vertex  1.139134e+002 1.310000e+001 1.961940e+001
      vertex  1.166194e+002 1.310000e+001 1.691342e+001
    endloop
  endfacet
  facet normal 0.000000e+000 1.000000e+000 0.000000e+000
    outer loop
      vertex  1.120000e+002 1.310000e+001 2.000000e+001
      vertex  1.166194e+002 1.310000e+001 1.691342e+001
      vertex  1.166194e+002 1.310000e+001 1.308658e+001
    endloop
  endfacet
  facet normal 0.000000e+000 1.000000e+000 0.000000e+000
    outer loop
      vertex  1.226066e+002 4.900000e+001 4.393398e+000
      vertex  1.139134e+002 4.900000e+001 1.038060e+001
      vertex  1.155355e+002 4.900000e+001 1.146447e+001
    endloop
  endfacet
  facet normal 0.000000e+000 0.000000e+000 -1.000000e+000
    outer loop
      vertex  2.431250e+001 1.070313e+001 7.031599e+000
      vertex  1.944236e+001 1.335943e+001 7.031599e+000
      vertex  2.223438e+001 1.195313e+001 7.031599e+000
    endloop
  endfacet
  facet normal -8.388512e-001 5.443607e-001 0.000000e+000
    outer loop
      vertex  3.945313e-001 9.179688e+000 2.298481e+001
      vertex  3.945313e-001 9.179688e+000 7.031599e+000
      vertex  -7.105427e-015 8.571721e+000 7.031599e+000
    endloop
  endfacet
  facet normal -8.388512e-001 5.443607e-001 0.000000e+000
    outer loop
      vertex  3.945313e-001 9.179688e+000 2.298481e+001
      vertex  -7.105427e-015 8.571721e+000 7.031599e+000
      vertex  7.105427e-015 8.571721e+000 2.298481e+001
    endloop
  endfacet
  facet normal -1.000000e+000 -8.289382e-016 8.907834e-016
    outer loop
      vertex  7.105427e-015 8.571721e+000 2.298481e+001
      vertex  -7.105427e-015 8.571721e+000 7.031599e+000
      vertex  0.000000e+000 2.131628e-014 7.031599e+000
    endloop
  endfacet
  facet normal -1.000000e+000 8.289382e-016 0.000000e+000
    outer loop
      vertex  7.105427e-015 8.571721e+000 2.298481e+001
      vertex  0.000000e+000 2.131628e-014 7.031599e+000
      vertex  0.000000e+000 2.131628e-014 2.298481e+001
    endloop
  endfacet
  facet normal 0.000000e+000 0.000000e+000 -1.000000e+000
    outer loop
      vertex  0.000000e+000 2.131628e-014 7.031599e+000
      vertex  2.795061e+001 8.503841e+000 7.031599e+000
      vertex  2.887201e+001 8.000000e+000 7.031599e+000
    endloop
  endfacet
  facet normal -1.326590e-014 -1.000000e+000 -1.616455e-014
    outer loop
      vertex  1.258582e+002 6.394885e-014 2.074025e+001
      vertex  1.226066e+002 2.842171e-014 2.560660e+001
      vertex  1.203336e+002 2.842171e-014 2.747204e+001
    endloop
  endfacet
  facet normal 1.844206e-014 -1.000000e+000 9.857481e-015
    outer loop
      vertex  1.258582e+002 6.394885e-014 2.074025e+001
      vertex  1.203336e+002 2.842171e-014 2.747204e+001
      vertex  1.270000e+002 2.842171e-014 1.500000e+001
    endloop
  endfacet
  facet normal 0.000000e+000 0.000000e+000 1.000000e+000
    outer loop
      vertex  1.371875e+001 1.519531e+001 2.298481e+001
      vertex  1.150000e+001 1.523438e+001 2.298481e+001
      vertex  9.187500e+000 1.486719e+001 2.298481e+001
    endloop
  endfacet
  facet normal -0.000000e+000 1.000000e+000 0.000000e+000
    outer loop
      vertex  1.100866e+002 1.310000e+001 1.961940e+001
      vertex  1.120000e+002 1.310000e+001 2.000000e+001
      vertex  1.073806e+002 1.310000e+001 1.691342e+001
    endloop
  endfacet
  facet normal 0.000000e+000 1.000000e+000 0.000000e+000
    outer loop
      vertex  1.100866e+002 1.310000e+001 1.961940e+001
      vertex  1.073806e+002 1.310000e+001 1.691342e+001
      vertex  1.084645e+002 1.310000e+001 1.853553e+001
    endloop
  endfacet
  facet normal 0.000000e+000 0.000000e+000 -1.000000e+000
    outer loop
      vertex  1.371875e+001 1.519531e+001 7.031599e+000
      vertex  1.587500e+001 1.479688e+001 7.031599e+000
      vertex  1.944236e+001 1.335943e+001 7.031599e+000
    endloop
  endfacet
  facet normal 0.000000e+000 0.000000e+000 -1.000000e+000
    outer loop
      vertex  1.371875e+001 1.519531e+001 7.031599e+000
      vertex  1.944236e+001 1.335943e+001 7.031599e+000
      vertex  2.431250e+001 1.070313e+001 7.031599e+000
    endloop
  endfacet
  facet normal 0.000000e+000 -0.000000e+000 -1.000000e+000
    outer loop
      vertex  3.253906e+000 1.199805e+001 7.031599e+000
      vertex  6.750000e+000 1.404688e+001 7.031599e+000
      vertex  0.000000e+000 2.131628e-014 7.031599e+000
    endloop
  endfacet
  facet normal 0.000000e+000 0.000000e+000 -1.000000e+000
    outer loop
      vertex  3.253906e+000 1.199805e+001 7.031599e+000
      vertex  0.000000e+000 2.131628e-014 7.031599e+000
      vertex  -7.105427e-015 8.571721e+000 7.031599e+000
    endloop
  endfacet
  facet normal 0.000000e+000 -0.000000e+000 -1.000000e+000
    outer loop
      vertex  6.750000e+000 1.404688e+001 7.031599e+000
      vertex  2.795061e+001 8.503841e+000 7.031599e+000
      vertex  0.000000e+000 2.131628e-014 7.031599e+000
    endloop
  endfacet
  facet normal 0.000000e+000 1.000000e+000 0.000000e+000
    outer loop
      vertex  1.226066e+002 4.900000e+001 4.393398e+000
      vertex  1.203336e+002 4.900000e+001 2.527956e+000
      vertex  1.177402e+002 4.900000e+001 1.141807e+000
    endloop
  endfacet
  facet normal 0.000000e+000 1.000000e+000 0.000000e+000
    outer loop
      vertex  1.226066e+002 4.900000e+001 4.393398e+000
      vertex  1.177402e+002 4.900000e+001 1.141807e+000
      vertex  1.139134e+002 4.900000e+001 1.038060e+001
    endloop
  endfacet
  facet normal 0.000000e+000 0.000000e+000 -1.000000e+000
    outer loop
      vertex  -7.105427e-015 8.571721e+000 7.031599e+000
      vertex  3.945313e-001 9.179688e+000 7.031599e+000
      vertex  1.242188e+000 1.020313e+001 7.031599e+000
    endloop
  endfacet
  facet normal 0.000000e+000 0.000000e+000 -1.000000e+000
    outer loop
      vertex  -7.105427e-015 8.571721e+000 7.031599e+000
      vertex  1.242188e+000 1.020313e+001 7.031599e+000
      vertex  3.253906e+000 1.199805e+001 7.031599e+000
    endloop
  endfacet
  facet normal 0.000000e+000 0.000000e+000 1.000000e+000
    outer loop
      vertex  2.571625e+001 9.820462e+000 2.298481e+001
      vertex  1.371875e+001 1.519531e+001 2.298481e+001
      vertex  9.187500e+000 1.486719e+001 2.298481e+001
    endloop
  endfacet
  facet normal 0.000000e+000 0.000000e+000 -1.000000e+000
    outer loop
      vertex  2.795061e+001 8.503841e+000 7.031599e+000
      vertex  6.750000e+000 1.404688e+001 7.031599e+000
      vertex  9.187500e+000 1.486719e+001 7.031599e+000
    endloop
  endfacet
  facet normal -0.000000e+000 -0.000000e+000 -1.000000e+000
    outer loop
      vertex  2.693641e+001 9.075743e+000 7.031599e+000
      vertex  2.795061e+001 8.503841e+000 7.031599e+000
      vertex  9.187500e+000 1.486719e+001 7.031599e+000
    endloop
  endfacet
  facet normal 0.000000e+000 0.000000e+000 -1.000000e+000
    outer loop
      vertex  2.693641e+001 9.075743e+000 7.031599e+000
      vertex  9.187500e+000 1.486719e+001 7.031599e+000
      vertex  1.150000e+001 1.523438e+001 7.031599e+000
    endloop
  endfacet
  facet normal 0.000000e+000 0.000000e+000 1.000000e+000
    outer loop
      vertex  2.571625e+001 9.820462e+000 2.298481e+001
      vertex  9.187500e+000 1.486719e+001 2.298481e+001
      vertex  0.000000e+000 2.131628e-014 2.298481e+001
    endloop
  endfacet
  facet normal 0.000000e+000 0.000000e+000 1.000000e+000
    outer loop
      vertex  2.571625e+001 9.820462e+000 2.298481e+001
      vertex  0.000000e+000 2.131628e-014 2.298481e+001
      vertex  2.757380e+001 8.700506e+000 2.298481e+001
    endloop
  endfacet
endsolid vcg
